<?xml version="1.0" encoding="UTF-8"?> <svg xmlns="http://www.w3.org/2000/svg" width="213" height="131" viewBox="0 0 213 131" fill="none"><path d="M2.23242 0C2.23242 33.9981 30.3924 61.5589 65.1296 61.5589L65.1292 31.8058C47.1817 31.8058 32.6323 17.5661 32.6323 0.000382051L2.23242 0Z" fill="#87BF40"></path><path d="M65.1276 68.6962H0V96.0556H37.7676V130.255H65.1276V68.6962Z" fill="#87BF40"></path><path d="M207.469 72.27V71.115H213V72.27L211.387 72.5876L206.461 85.4655C205.636 87.6792 204.8 89.3155 203.955 90.3742C203.11 91.4329 202.064 91.9623 200.816 91.9623C200.067 91.9623 199.414 91.7698 198.857 91.3848C198.319 90.9998 198.031 90.5186 197.993 89.9411C198.108 89.4213 198.367 89.0267 198.77 88.7572C199.193 88.507 199.654 88.3819 200.153 88.3819C200.537 88.3819 200.912 88.4589 201.276 88.6129C201.66 88.7861 202.045 89.1133 202.429 89.5946L202.601 89.8256C203.12 89.3251 203.571 88.7476 203.955 88.0931C204.339 87.4579 204.656 86.7745 204.906 86.043L204.963 85.8698L199.491 72.501L198.021 72.27V71.115H205.568V72.27L203.293 72.5876L206.519 81.4231L209.659 72.6165L207.469 72.27Z" fill="white"></path><path d="M187.276 84.946V83.7621L189.12 83.4157C189.139 82.6842 189.149 81.9046 189.149 81.0768C189.149 80.2299 189.149 79.4984 189.149 78.8824V77.352C189.149 76.5628 189.139 75.9372 189.12 75.4752C189.12 74.994 189.101 74.4646 189.062 73.8871L187.046 73.6272V72.53L191.856 70.7109L192.317 70.9997L192.605 74.4069C193.047 73.2134 193.642 72.299 194.391 71.6638C195.14 71.0286 195.889 70.7109 196.638 70.7109C197.156 70.7109 197.627 70.8457 198.049 71.1152C198.491 71.3847 198.779 71.7697 198.913 72.2702C198.894 72.9824 198.721 73.5406 198.395 73.9449C198.068 74.3299 197.617 74.5224 197.041 74.5224C196.35 74.5224 195.697 74.1759 195.082 73.4829L194.823 73.1941C193.805 74.0411 193.076 75.2346 192.634 76.7746V78.8824C192.634 79.4791 192.634 80.1914 192.634 81.0191C192.634 81.8276 192.643 82.5879 192.663 83.3002L195.025 83.7621V84.946H187.276Z" fill="white"></path><path d="M181.725 85.2055L181.495 82.6645C180.093 84.4547 178.46 85.3498 176.598 85.3498C175.407 85.3498 174.447 84.9648 173.717 84.1949C173.007 83.4056 172.661 82.0582 172.68 80.1525L172.796 73.0205L170.923 72.6163V71.4902L175.964 70.8838L176.31 71.2014L176.166 75.2438V80.037C176.166 81.1149 176.329 81.8753 176.655 82.318C177.001 82.7415 177.491 82.9533 178.124 82.9533C178.662 82.9533 179.209 82.7993 179.766 82.4913C180.342 82.1833 180.89 81.7887 181.408 81.3074L181.495 73.0205L179.68 72.6163V71.5479L184.605 70.8838L184.98 71.2014L184.894 75.2438V83.3864L186.651 83.7618V84.9456L181.725 85.2055Z" fill="white"></path><path d="M155.371 84.9459V83.7621L157.243 83.4156C157.263 82.7033 157.272 81.9334 157.272 81.1056C157.291 80.2586 157.301 79.5175 157.301 78.8823V66.4663L155.198 66.2065V65.0804L160.354 63.781L160.786 64.0409L160.671 68.1122V72.7609C161.958 71.3942 163.388 70.7109 164.963 70.7109C166 70.7109 166.941 70.99 167.786 71.5482C168.631 72.1064 169.293 72.9246 169.773 74.0025C170.273 75.0613 170.522 76.3606 170.522 77.9006C170.522 79.4213 170.244 80.7399 169.687 81.8564C169.149 82.9728 168.429 83.8391 167.527 84.455C166.624 85.0518 165.616 85.3502 164.502 85.3502C163.753 85.3502 163.052 85.2058 162.399 84.917C161.766 84.6283 161.17 84.1471 160.614 83.4733L160.239 85.2924L155.371 84.9459ZM163.58 72.7609C163.139 72.7609 162.678 72.8764 162.198 73.1074C161.737 73.3384 161.257 73.6657 160.758 74.0892V82.0873C161.641 82.9151 162.543 83.3289 163.465 83.3289C164.406 83.3289 165.203 82.8958 165.856 82.0296C166.509 81.1634 166.835 79.8448 166.835 78.0738C166.835 76.2836 166.528 74.9554 165.914 74.0892C165.318 73.2037 164.541 72.7609 163.58 72.7609Z" fill="white"></path><path d="M144.403 84.946V83.7621L146.247 83.4157C146.266 82.6842 146.275 81.9046 146.275 81.0768C146.275 80.2299 146.275 79.4984 146.275 78.8824V77.352C146.275 76.5628 146.266 75.9372 146.247 75.4752C146.247 74.994 146.227 74.4646 146.189 73.8871L144.173 73.6272V72.53L148.983 70.7109L149.444 70.9997L149.732 74.4069C150.174 73.2134 150.769 72.299 151.518 71.6638C152.267 71.0286 153.016 70.7109 153.765 70.7109C154.283 70.7109 154.754 70.8457 155.176 71.1152C155.618 71.3847 155.906 71.7697 156.04 72.2702C156.021 72.9824 155.848 73.5406 155.522 73.9449C155.195 74.3299 154.744 74.5224 154.168 74.5224C153.477 74.5224 152.824 74.1759 152.209 73.4829L151.95 73.1941C150.932 74.0411 150.203 75.2346 149.761 76.7746V78.8824C149.761 79.4791 149.761 80.1914 149.761 81.0191C149.761 81.8276 149.77 82.5879 149.79 83.3002L152.152 83.7621V84.946H144.403Z" fill="white"></path><path d="M137.299 72.0969C136.838 72.0969 136.377 72.2509 135.916 72.5589C135.475 72.8476 135.091 73.3289 134.764 74.0026C134.457 74.6764 134.265 75.5907 134.188 76.7457H138.134C138.826 76.7457 139.286 76.6013 139.517 76.3126C139.747 76.0238 139.863 75.6196 139.863 75.0998C139.863 74.2144 139.613 73.4925 139.114 72.9343C138.614 72.376 138.009 72.0969 137.299 72.0969ZM137.299 85.3502C135.955 85.3502 134.774 85.0615 133.756 84.484C132.738 83.9065 131.941 83.0788 131.365 82.0008C130.789 80.9036 130.501 79.6042 130.501 78.1028C130.501 76.5628 130.827 75.2442 131.48 74.147C132.152 73.0305 133.017 72.1835 134.073 71.606C135.148 71.0093 136.291 70.7109 137.501 70.7109C138.634 70.7109 139.622 70.9516 140.467 71.4328C141.312 71.914 141.965 72.5878 142.426 73.454C142.906 74.3202 143.146 75.3405 143.146 76.5147C143.146 77.1307 143.089 77.66 142.973 78.1028H134.159C134.236 79.7582 134.668 80.9998 135.455 81.8276C136.262 82.6553 137.27 83.0692 138.48 83.0692C139.325 83.0692 140.035 82.9055 140.611 82.5783C141.207 82.2318 141.744 81.7891 142.225 81.2501L143.06 82.0008C142.503 83.0595 141.735 83.8873 140.755 84.484C139.795 85.0615 138.643 85.3502 137.299 85.3502Z" fill="white"></path><path d="M126.848 85.3501C125.695 85.3501 124.793 85.0613 124.14 84.4839C123.487 83.9064 123.161 82.9824 123.161 81.7119C123.161 81.2692 123.161 80.8553 123.161 80.4703C123.18 80.0661 123.189 79.5848 123.189 79.0266V72.8764H121.058V71.3749L123.391 71.0862L124.486 67.1304H126.819L126.704 71.115H130.16V72.8764H126.675V81.3943C126.675 82.1065 126.809 82.6263 127.078 82.9535C127.366 83.2808 127.741 83.4444 128.201 83.4444C128.72 83.4444 129.306 83.2038 129.959 82.7225L130.65 83.4444C130.285 84.0411 129.786 84.5127 129.152 84.8592C128.518 85.1865 127.75 85.3501 126.848 85.3501Z" fill="white"></path><path d="M105.433 84.946V83.7621L107.305 83.3868C107.325 82.6745 107.334 81.9046 107.334 81.0768C107.334 80.2299 107.334 79.4984 107.334 78.8824V77.352C107.334 76.5628 107.325 75.9372 107.305 75.4752C107.305 74.994 107.286 74.4646 107.248 73.8871L105.231 73.6272V72.53L110.042 70.7109L110.503 70.9997L110.704 73.223C112.183 71.5483 113.815 70.7109 115.601 70.7109C116.849 70.7109 117.81 71.1248 118.482 71.9525C119.173 72.7803 119.519 74.0892 119.519 75.8794V78.8824C119.519 79.5369 119.519 80.278 119.519 81.1057C119.519 81.9334 119.528 82.7034 119.547 83.4157L121.305 83.7621V84.946H114.19V83.7621L116.033 83.3868C116.052 82.6745 116.062 81.9142 116.062 81.1057C116.062 80.278 116.062 79.5369 116.062 78.8824V76.1393C116.062 75.0036 115.908 74.224 115.601 73.8005C115.294 73.3578 114.775 73.1364 114.046 73.1364C113.028 73.1364 111.953 73.608 110.82 74.5512V78.8824C110.82 79.5176 110.82 80.2491 110.82 81.0768C110.82 81.9046 110.829 82.6842 110.848 83.4157L112.548 83.7621V84.946H105.433Z" fill="white"></path><path d="M102.103 85.2925C101.335 85.2925 100.711 85.1 100.231 84.715C99.7509 84.33 99.4245 83.8006 99.2516 83.1269C98.5411 83.8584 97.8978 84.4166 97.3217 84.8016C96.7456 85.1674 95.9967 85.3502 95.0749 85.3502C93.9996 85.3502 93.0874 85.0422 92.3385 84.4263C91.6088 83.791 91.2439 82.8863 91.2439 81.7121C91.2439 81.0961 91.3879 80.5282 91.676 80.0085C91.964 79.4695 92.4729 78.969 93.2026 78.507C93.9515 78.045 95.0173 77.5927 96.3999 77.1499C96.784 77.0152 97.2161 76.8804 97.6962 76.7457C98.1762 76.6109 98.6659 76.4762 99.1652 76.3414V75.533C99.1652 74.1855 98.9732 73.2808 98.5891 72.8188C98.2243 72.3375 97.5713 72.0969 96.6304 72.0969C96.4576 72.0969 96.2655 72.1065 96.0543 72.1258C95.8623 72.145 95.6606 72.1739 95.4494 72.2124L95.1037 73.8005C95.0269 74.4935 94.8253 75.0036 94.4988 75.3308C94.1724 75.6581 93.7691 75.8217 93.289 75.8217C92.3673 75.8217 91.8296 75.3886 91.676 74.5224C91.8488 73.3674 92.4633 72.4434 93.5195 71.7504C94.5949 71.0574 96.0063 70.7109 97.7538 70.7109C99.4245 70.7109 100.644 71.1152 101.412 71.9237C102.18 72.7129 102.564 74.0507 102.564 75.9372V82.2318C102.564 83.098 102.843 83.5312 103.4 83.5312C103.764 83.5312 104.1 83.3194 104.408 82.8959L105.07 83.4734C104.725 84.1279 104.312 84.5995 103.832 84.8882C103.371 85.1577 102.795 85.2925 102.103 85.2925ZM94.6141 81.1057C94.6141 81.8564 94.8061 82.4051 95.1902 82.7515C95.5934 83.0788 96.0831 83.2424 96.6592 83.2424C96.9856 83.2424 97.3121 83.1654 97.6386 83.0114C97.965 82.8574 98.4739 82.5398 99.1652 82.0586V77.4964C98.7619 77.6312 98.3779 77.7563 98.013 77.8718C97.6674 77.9873 97.3697 78.0931 97.1201 78.1894C96.1599 78.5744 95.4974 79.0171 95.1325 79.5176C94.7869 80.0181 94.6141 80.5475 94.6141 81.1057Z" fill="white"></path><path d="M83.9862 85.4368C82.1043 85.4368 80.4144 85.0422 78.9166 84.253C77.438 83.4445 76.2666 82.2895 75.4024 80.7881C74.5575 79.2673 74.135 77.4579 74.135 75.3597C74.135 73.2615 74.5767 71.4616 75.46 69.9602C76.3626 68.4587 77.5628 67.3134 79.0606 66.5241C80.5777 65.7156 82.2484 65.3114 84.0727 65.3114C85.0136 65.3114 85.9546 65.4173 86.8955 65.629C87.8365 65.8408 88.7678 66.2065 89.6896 66.7262L89.8048 71.0574H87.8173L87.126 67.477C86.7035 67.246 86.281 67.0824 85.8585 66.9861C85.4361 66.8899 85.0136 66.8417 84.5911 66.8417C83.4389 66.8417 82.3732 67.1594 81.3938 67.7946C80.4337 68.4106 79.6559 69.3538 79.0606 70.6243C78.4845 71.8755 78.1965 73.4636 78.1965 75.3886C78.1965 77.2943 78.4653 78.8823 79.003 80.1528C79.5599 81.404 80.3088 82.3376 81.2498 82.9536C82.1907 83.5696 83.2469 83.8776 84.4183 83.8776C85.3977 83.8776 86.3866 83.6562 87.3852 83.2135L88.0765 79.6908H90.0352L89.92 83.9931C89.0943 84.4551 88.1821 84.8112 87.1836 85.0615C86.185 85.3117 85.1192 85.4368 83.9862 85.4368Z" fill="white"></path><path d="M132.364 94.3157C133.593 94.3157 134.687 94.5658 135.646 95.0661C136.625 95.5471 137.393 96.2974 137.95 97.3171C138.506 98.3176 138.784 99.6067 138.784 101.184V110.073H134.293V101.877C134.293 100.626 134.015 99.7029 133.458 99.1064C132.921 98.51 132.153 98.2118 131.155 98.2118C130.445 98.2118 129.802 98.3657 129.226 98.6735C128.669 98.9621 128.228 99.4143 127.902 100.03C127.595 100.646 127.441 101.434 127.441 102.396V110.073H122.95V88.6592H127.441V98.8467L126.433 97.548C126.99 96.509 127.787 95.7106 128.823 95.1526C129.859 94.5947 131.04 94.3157 132.364 94.3157Z" fill="white"></path><path d="M114.949 110.304C113.28 110.304 111.792 109.967 110.487 109.294C109.182 108.601 108.155 107.649 107.406 106.437C106.677 105.225 106.312 103.849 106.312 102.31C106.312 100.751 106.677 99.3756 107.406 98.1828C108.155 96.9707 109.182 96.0279 110.487 95.3545C111.792 94.6619 113.28 94.3156 114.949 94.3156C116.581 94.3156 118.001 94.6619 119.21 95.3545C120.42 96.0279 121.312 96.9995 121.888 98.2693L118.404 100.145C118.001 99.4141 117.493 98.8754 116.878 98.5291C116.283 98.1828 115.631 98.0096 114.921 98.0096C114.153 98.0096 113.462 98.1828 112.848 98.5291C112.234 98.8754 111.744 99.366 111.379 100.001C111.034 100.636 110.861 101.405 110.861 102.31C110.861 103.214 111.034 103.984 111.379 104.619C111.744 105.253 112.234 105.744 112.848 106.09C113.462 106.437 114.153 106.61 114.921 106.61C115.631 106.61 116.283 106.446 116.878 106.119C117.493 105.773 118.001 105.225 118.404 104.474L121.888 106.379C121.312 107.63 120.42 108.601 119.21 109.294C118.001 109.967 116.581 110.304 114.949 110.304Z" fill="white"></path><path d="M97.852 110.304C96.0862 110.304 94.5316 109.958 93.188 109.265C91.8637 108.572 90.8368 107.63 90.1075 106.437C89.3781 105.225 89.0134 103.849 89.0134 102.31C89.0134 100.751 89.3685 99.3756 90.0787 98.1828C90.808 96.9707 91.7965 96.0279 93.0441 95.3545C94.2916 94.6619 95.7024 94.3156 97.2762 94.3156C98.7925 94.3156 100.155 94.6426 101.364 95.2968C102.593 95.9317 103.562 96.8552 104.272 98.0673C104.982 99.2602 105.337 100.694 105.337 102.367C105.337 102.541 105.328 102.743 105.309 102.973C105.29 103.185 105.27 103.387 105.251 103.58H92.6698V100.953H102.89L101.163 101.733C101.163 100.924 101 100.222 100.673 99.6258C100.347 99.0293 99.8961 98.5676 99.3203 98.2405C98.7445 97.8942 98.0728 97.721 97.305 97.721C96.5373 97.721 95.8559 97.8942 95.2609 98.2405C94.6851 98.5676 94.2341 99.0389 93.9078 99.6546C93.5815 100.251 93.4183 100.963 93.4183 101.79V102.483C93.4183 103.329 93.6007 104.08 93.9654 104.734C94.3492 105.369 94.877 105.859 95.5488 106.206C96.2398 106.533 97.0459 106.696 97.9672 106.696C98.7925 106.696 99.5123 106.571 100.126 106.321C100.76 106.071 101.336 105.696 101.854 105.196L104.243 107.793C103.533 108.601 102.641 109.226 101.566 109.669C100.491 110.092 99.2532 110.304 97.852 110.304Z" fill="white"></path><path d="M80.449 110.073V93.6807H74V89.8712H91.5621V93.6807H85.113V110.073H80.449Z" fill="white"></path></svg> 