<?xml version="1.0" encoding="UTF-8"?>
<svg width="224px" height="90px" viewBox="0 0 224 90" version="1.1" xmlns="http://www.w3.org/2000/svg" xmlns:xlink="http://www.w3.org/1999/xlink">
    <!-- Generator: Sketch 53.2 (72643) - https://sketchapp.com -->
    <title>Toitu-LOGO-Blk</title>
    <desc>Created with Sketch.</desc>
    <g id="Symbols" stroke="none" stroke-width="1" fill="none" fill-rule="evenodd">
        <g id="Toitu-LOGO-Blk" fill="#2E2C2D">
            <g>
                <path d="M197.371089,82.4232989 L195.358509,82.4232989 L195.358509,84.5989361 L197.231327,84.5989361 C197.92781,84.5989361 198.458908,84.1307315 198.458908,83.5111175 C198.458908,82.9171266 197.96508,82.4232989 197.371089,82.4232989 L197.371089,82.4232989 Z M200.657839,89.7841269 L199.546727,89.7841269 C199.078522,89.7841269 198.645258,89.5302249 198.41465,89.1225841 L196.711876,86.1037129 L195.358509,86.1037129 L195.358509,89.0177622 C195.358509,89.4393792 195.01609,89.7841269 194.592144,89.7841269 L193.767545,89.7841269 L193.767545,80.9185221 L197.357113,80.9185221 C198.719798,80.9185221 199.935732,81.9224831 200.05453,83.2828387 C200.124412,84.0771558 199.828581,84.8248855 199.253225,85.3583126 C199.001653,85.595909 198.698834,85.7869178 198.368062,85.9127041 L200.657839,89.7841269 Z" id="Fill-3"></path>
                <path d="M121.28878,82.4363434 C119.64424,82.4363434 118.367742,83.7640877 118.367742,85.457544 C118.367742,87.167306 119.64424,88.481074 121.28878,88.481074 C122.919343,88.481074 124.19817,87.167306 124.19817,85.457544 C124.19817,83.7640877 122.919343,82.4363434 121.28878,82.4363434 M121.28878,89.9858508 C118.798677,89.9858508 116.774449,87.9499763 116.774449,85.457544 C116.774449,82.9674412 118.798677,80.9432135 121.28878,80.9432135 C123.767236,80.9432135 125.791463,82.9674412 125.791463,85.457544 C125.791463,87.9499763 123.767236,89.9858508 121.28878,89.9858508" id="Fill-5"></path>
                <path d="M2.16286415,88.3804449 L2.16286415,85.9905052 L4.47360507,85.9905052 C4.90919837,85.9905052 5.26326351,85.6387695 5.26326351,85.2031762 L5.26326351,84.4857284 L2.16286415,84.4857284 L2.16286415,82.5243939 L5.15145347,82.5243939 C5.6033524,82.5243939 5.9713938,82.1586818 5.9713938,81.7067829 L5.9713938,81.019617 L0.569571012,81.019617 L0.569571012,89.8852218 L5.39370856,89.8852218 C5.81765498,89.8852218 6.16240262,89.5404742 6.16240262,89.1141984 L6.16240262,88.3804449 L2.16286415,88.3804449 Z" id="Fill-7"></path>
                <path d="M31.2274194,89.8854547 L30.239764,89.8854547 C30.0254614,89.8854547 29.8228057,89.7852916 29.6923606,89.6152471 L25.3597214,83.9921336 L25.3597214,89.0026213 C25.3597214,89.4894608 24.9637275,89.8854547 24.4745586,89.8854547 L23.7664283,89.8854547 L23.7664283,81.0198499 L24.7540837,81.0198499 C24.9683863,81.0198499 25.171042,81.1200131 25.301487,81.2900575 L29.6341263,86.9015242 L29.6341263,81.7862146 C29.6341263,81.3622682 29.9765445,81.0198499 30.4004909,81.0198499 L31.2274194,81.0198499 L31.2274194,89.8854547 Z" id="Fill-9"></path>
                <path d="M75.7194314,81.8607547 C75.7194314,81.3972088 75.3420725,81.0198499 74.8785267,81.0198499 L74.1261383,81.0198499 L74.1261383,88.9956331 C74.1261383,89.4871314 74.5244616,89.8854547 75.0159599,89.8854547 L75.7194314,89.8854547 L75.7194314,81.8607547 Z" id="Fill-11"></path>
                <path d="M56.8137505,81.0203158 L55.7608726,81.0203158 C55.3602199,81.0203158 55.001496,81.269559 54.8594041,81.6445886 L52.7163782,87.3562183 L50.5617055,81.6422592 C50.4196136,81.2672297 50.0608897,81.0203158 49.660237,81.0203158 L48.6073591,81.0203158 L52.0571648,89.8859206 L53.3802504,89.8859206 C53.3802504,89.8859206 53.3802504,89.8859206 53.3802504,89.8859206 L56.8137505,81.0203158 Z" id="Fill-13"></path>
                <path d="M97.5272818,82.5376713 L95.514701,82.5376713 L95.514701,84.7133084 L97.3875193,84.7133084 C98.0840027,84.7133084 98.6151004,84.2451039 98.6151004,83.6254899 C98.6151004,83.031499 98.1212727,82.5376713 97.5272818,82.5376713 L97.5272818,82.5376713 Z M100.814031,89.8984992 L99.7029189,89.8984992 C99.2347144,89.8984992 98.8014505,89.6445973 98.5708422,89.2369565 L96.8680684,86.2180853 L95.514701,86.2180853 L95.514701,89.1228171 C95.514701,89.5514222 95.167624,89.8984992 94.7413482,89.8984992 L93.9237373,89.8984992 L93.9237373,81.0328944 L97.5109762,81.0328944 C98.8713317,81.0328944 100.084937,82.0298673 100.208394,83.3855641 C100.282934,84.1822107 99.9871028,84.9369285 99.4094176,85.472685 C99.157845,85.7102813 98.8550261,85.9012901 98.5242547,86.0270764 L100.814031,89.8984992 Z" id="Fill-15"></path>
                <path d="M219.393941,88.3806779 L219.393941,85.9907382 L221.704682,85.9907382 C222.140275,85.9907382 222.494341,85.6390024 222.494341,85.2034091 L222.494341,84.4859613 L219.393941,84.4859613 L219.393941,82.5246268 L222.382531,82.5246268 C222.834429,82.5246268 223.202471,82.1589148 223.202471,81.7070158 L223.202471,81.0198499 L217.800648,81.0198499 L217.800648,89.8854547 L222.624786,89.8854547 C223.051061,89.8854547 223.39348,89.5407071 223.39348,89.1144313 L223.39348,88.3806779 L219.393941,88.3806779 Z" id="Fill-17"></path>
                <path d="M151.369176,88.0634169 C150.362885,89.4097962 148.620512,90.1878077 146.764,89.7731788 C145.016968,89.384173 143.633318,87.93996 143.323511,86.1766224 C142.820366,83.3254662 145.005321,80.8423515 147.765631,80.8423515 C149.156269,80.8423515 150.42112,81.4875886 151.24339,82.4985378 L150.628434,83.001683 C150.341921,83.2346206 149.931951,83.23695 149.647767,82.9993536 C149.184221,82.617336 148.527337,82.3354815 147.765631,82.3354815 C146.121092,82.3354815 144.844594,83.6632257 144.844594,85.356682 C144.844594,87.0641146 146.121092,88.380212 147.765631,88.380212 C148.587901,88.380212 149.270408,88.0424525 149.754918,87.6091886 C150.041432,87.3506278 150.472366,87.3319928 150.772856,87.5765773 L151.369176,88.0634169 Z" id="Fill-19"></path>
                <path d="M189.570475,4.14042791 L215.277468,4.14042791 C217.262096,4.14042791 218.871695,2.53082914 218.871695,0.546200845 L218.871695,0.0337381403 L185.976248,0.0337381403 L185.976248,0.546200845 C185.976248,2.53082914 187.585847,4.14042791 189.570475,4.14042791" id="Fill-21"></path>
                <path d="M118.00436,62.3142624 L117.321853,62.3142624 C115.334895,62.3142624 113.725296,60.7046636 113.725296,58.7200353 L113.725296,10.8630068 L114.410133,10.8630068 C116.394761,10.8630068 118.00436,12.4726056 118.00436,14.4572339 L118.00436,62.3142624 Z" id="Fill-23"></path>
                <path d="M0.56980395,10.8632398 L0.56980395,11.45956 C0.56980395,13.4441883 2.17940272,15.0537871 4.16403101,15.0537871 L18.2218148,15.0537871 L18.2218148,58.7202683 C18.2218148,60.7048966 19.8314135,62.3144953 21.8160418,62.3144953 L22.498549,62.3144953 L22.498549,15.0537871 L36.5563327,15.0537871 C38.540961,15.0537871 40.1505598,13.4441883 40.1505598,11.45956 L40.1505598,10.8632398 L0.56980395,10.8632398 Z" id="Fill-25"></path>
                <path d="M129.634235,10.8632398 L129.634235,11.45956 C129.634235,13.4441883 131.243834,15.0537871 133.228462,15.0537871 L147.286246,15.0537871 L147.286246,58.7202683 C147.286246,60.7048966 148.895845,62.3144953 150.880473,62.3144953 L151.56298,62.3144953 L151.56298,15.0537871 L165.620764,15.0537871 C167.605392,15.0537871 169.214991,13.4441883 169.214991,11.45956 L169.214991,10.8632398 L129.634235,10.8632398 Z" id="Fill-27"></path>
                <path d="M222.711205,10.8632398 C220.726577,10.8632398 219.116978,12.4728385 219.116978,14.4574668 L219.116978,42.7151263 C219.116978,51.9487724 211.728198,59.5588436 202.417682,59.5588436 C193.107167,59.5588436 185.718386,51.9487724 185.718386,42.7151263 L185.718386,14.4574668 C185.718386,12.4728385 184.111117,10.8632398 182.124159,10.8632398 L181.441652,10.8632398 L181.441652,42.3983311 C181.441652,53.9077776 190.582123,63.5141239 202.09157,63.6911565 C213.808331,63.8681891 223.393713,54.3899584 223.393713,42.7151263 L223.393713,10.8632398 L222.711205,10.8632398 Z" id="Fill-29"></path>
                <path d="M173.450029,86.3888285 L172.322611,83.498073 L171.192864,86.3888285 L173.450029,86.3888285 Z M176.520147,89.7827293 L175.471927,89.7827293 C175.043322,89.7827293 174.661305,89.5218391 174.507566,89.1235159 L174.032373,87.8936054 L170.598873,87.8936054 L170.12368,89.1235159 C169.969942,89.5218391 169.587924,89.7827293 169.159319,89.7827293 L168.1111,89.7827293 L171.677374,80.9194538 L172.967848,80.9194538 L176.520147,89.7827293 Z" id="Fill-31"></path>
                <path d="M69.2985067,9.47376704 C57.1508112,9.85578469 44.6606974,21.4118187 45.1405489,36.669231 C45.2104302,38.8588444 45.5062609,40.7293333 45.823056,42.3459202 C48.5996721,41.0041996 49.39166,38.6492006 49.4149537,36.2243202 C49.5430694,22.7116105 60.2861512,14.1325189 68.8931953,13.8623113 C73.4843952,13.71789 75.8859818,15.9098327 75.9651806,18.4209 C75.9768275,18.805247 75.8766643,19.3386741 75.7229255,19.7020567 C77.7634588,19.6391636 79.4173157,18.2438674 79.3451051,15.942444 C79.2379538,12.5205908 75.3688603,9.28275821 69.2985067,9.47376704" id="Fill-33"></path>
                <path d="M50.716609,52.4123183 C57.1223928,62.7407711 73.3744487,67.7792113 86.3467432,59.7358762 C88.2079146,58.5805057 89.6800802,57.3901946 90.9216376,56.3070348 C88.3733003,54.5716497 85.9367731,55.0654774 83.8263585,56.2581179 C72.0583513,62.9014981 59.2584305,57.8886811 54.7208062,50.5674525 C52.3005846,46.6657478 52.997068,43.4884791 55.1307764,42.1653935 C55.4592184,41.9627378 55.9716811,41.7810465 56.3630162,41.734459 C55.2868446,39.9990739 53.25097,39.2653205 51.2942942,40.4789254 C48.3872331,42.2818623 47.5160465,47.2504212 50.716609,52.4123183" id="Fill-35"></path>
                <path d="M97.1932493,47.0354198 C102.935161,36.3249493 99.1732189,19.7304751 85.7187435,12.5163979 C83.7900202,11.482155 82.0220239,10.8019772 80.4636714,10.2685501 C80.2353925,13.3456557 81.8822613,15.2068271 83.9670528,16.4390669 C95.6046149,23.3083966 97.6637832,36.9003051 93.5943635,44.4917413 C91.4257145,48.5378673 88.3253151,49.5231933 86.112408,48.3352116 C85.7723191,48.1535202 85.3600196,47.7994551 85.1224232,47.4849894 C84.1580616,49.2832676 84.5400793,51.4146465 86.5689657,52.5024651 C89.5855075,54.119052 94.3234582,52.3883257 97.1932493,47.0354198" id="Fill-37"></path>
            </g>
        </g>
    </g>
</svg>